<?xml version="1.0" encoding="utf-8"?>
<!-- Generator: Adobe Illustrator 25.4.1, SVG Export Plug-In . SVG Version: 6.00 Build 0)  -->
<svg version="1.1" id="Layer_1" xmlns="http://www.w3.org/2000/svg" xmlns:xlink="http://www.w3.org/1999/xlink" x="0px" y="0px"
	 viewBox="0 0 300 300" style="enable-background:new 0 0 300 300;" xml:space="preserve">
<g>
	<path d="M84.5,219.8c8.8,0,15.9-7.1,15.9-15.9S93.3,188,84.5,188s-15.9,7.1-15.9,15.9S75.7,219.8,84.5,219.8z M77.3,203.9
		c0-4,3.2-7.2,7.2-7.2c4,0,7.2,3.2,7.2,7.2s-3.2,7.2-7.2,7.2C80.5,211.1,77.3,207.9,77.3,203.9z"/>
	<path d="M223.2,219.8c8.8,0,15.9-7.1,15.9-15.9S232,188,223.2,188s-15.9,7.1-15.9,15.9S214.4,219.8,223.2,219.8z M216,203.9
		c0-4,3.2-7.2,7.2-7.2c4,0,7.2,3.2,7.2,7.2s-3.2,7.2-7.2,7.2C219.2,211.1,216,207.9,216,203.9z"/>
	<path d="M273.8,130.7l-0.2-1.2l-16.7-53.6c-2.1-6.7-8.2-11.2-15.2-11.2H130.2c-6.1,0-11.5,3.4-14.2,8.8l-24.7,52.9l-50.5,12.6
		c-4.1,1-7.8,3.4-10.5,6.8c-2.6,3.4-4,7.5-4,11.8v34.7c0,8.8,7.1,15.9,15.9,15.9h11.4c2.2,15.4,15.4,27,31,27s28.8-11.6,31-27h76.7
		c2.2,15.4,15.4,27,31,27s28.8-11.6,31-27h3.7c8.8,0,15.9-7.1,15.9-15.9L273.8,130.7z M161.1,180.3h-38c-2.4,0-4.4,2-4.4,4.4
		c0,2.4,2,4.4,4.4,4.4h72.7c-1.8,3.3-3,6.8-3.5,10.6h-76.7c-1-6.9-4.2-13.3-9.1-18c-2.8-2.7-6.1-4.9-9.8-6.5v-40h64.5V180.3z
		 M165.4,80.2h-30.8c-2.4,0-4.4,2-4.4,4.4s2,4.4,4.4,4.4h26.5v37.5h-60.2l22.8-48.9c1.2-2.5,3.7-4,6.5-4h111.5c3.2,0,5.9,2,6.9,5.1
		l16.5,52.9v14.2h-14.9c-2.4,0-4.4,2-4.4,4.4v19.3c0,2.4,2,4.4,4.4,4.4h14.9v6.7h-21.4c-5.7-5-13-7.7-20.5-7.7
		c-7.5,0-14.8,2.7-20.5,7.7h-32.9V84.5C169.8,82.1,167.8,80.2,165.4,80.2z M207.4,187.7c4.2-4.1,9.8-6.4,15.8-6.4
		c5.9,0,11.6,2.3,15.8,6.5c4.3,4.2,6.8,10.1,6.8,16.1c0,12.5-10.1,22.6-22.6,22.6s-22.6-10.1-22.6-22.6
		C200.6,197.9,203.1,192,207.4,187.7z M265.1,154.4v10.6h-10.6v-10.6H265.1z M68.8,187.7c4.2-4.1,9.8-6.4,15.8-6.4
		c2.2,0,4.4,0.3,6.5,0.9c3.5,1.1,6.7,3,9.4,5.5c4.3,4.2,6.8,10.1,6.8,16.1c0,12.5-10.1,22.6-22.6,22.6c-12.5,0-22.6-10.1-22.6-22.6
		C61.9,197.9,64.4,192,68.8,187.7z M53.7,153.4H35.9c0.3-0.7,0.7-1.4,1.2-2c1.5-1.9,3.5-3.2,5.7-3.7l45-11.2v36.5
		c-1.3-0.1-2.3-0.2-3.4-0.2c-7.5,0-14.8,2.7-20.5,7.7h-6v-22.6C58.1,155.3,56.1,153.4,53.7,153.4z M34.9,180.3v-18.3h14.4v18.3H34.9
		z M57,189c-1.8,3.3-3,6.8-3.5,10.6H42.2c-4,0-7.2-3.2-7.2-7.2V189H57z M265.1,189v3.3c0,4-3.2,7.2-7.2,7.2h-3.7
		c-0.5-3.7-1.7-7.3-3.5-10.6H265.1z"/>
	<path d="M180.8,135.1H227c2.4,0,4.4-2,4.4-4.4V84.5c0-2.4-2-4.4-4.4-4.4h-46.2c-2.4,0-4.4,2-4.4,4.4v46.2
		C176.5,133.1,178.4,135.1,180.8,135.1z M185.2,126.4V88.9h37.5v37.5H185.2z"/>
	<path d="M138.4,150.5H150c2.4,0,4.4-2,4.4-4.4c0-2.4-2-4.4-4.4-4.4h-11.6c-2.4,0-4.4,2-4.4,4.4C134.1,148.5,136,150.5,138.4,150.5z
		"/>
	<path d="M204.7,100.7l-7.7,7.7c-1.7,1.7-1.7,4.5,0,6.2c0.8,0.8,1.9,1.3,3.1,1.3c1.2,0,2.3-0.5,3.1-1.3l7.7-7.7
		c1.7-1.7,1.7-4.5,0-6.2C209.2,99,206.4,99,204.7,100.7z"/>
	<path d="M134.6,115.8c1.2,0,2.3-0.5,3.1-1.3l7.7-7.7c1.7-1.7,1.7-4.5,0-6.2c-1.7-1.7-4.5-1.7-6.2,0l-7.7,7.7
		c-1.7,1.7-1.7,4.5,0,6.2C132.3,115.4,133.4,115.8,134.6,115.8z"/>
</g>
</svg>
