<?xml version="1.0" encoding="utf-8"?>
<!-- Generator: Adobe Illustrator 25.4.1, SVG Export Plug-In . SVG Version: 6.00 Build 0)  -->
<svg version="1.1" id="Layer_1" xmlns="http://www.w3.org/2000/svg" xmlns:xlink="http://www.w3.org/1999/xlink" x="0px" y="0px"
	 viewBox="0 0 300 300" style="enable-background:new 0 0 300 300;" xml:space="preserve">
<path d="M197.3,215.5h-97.1c-38.7,0-70.2-31.5-70.2-70.2s31.5-70.2,70.2-70.2h97.1c38.7,0,70.2,31.5,70.2,70.2
	S236,215.5,197.3,215.5z M100.1,86.1c-32.7,0-59.2,26.6-59.2,59.2s26.6,59.2,59.2,59.2h97.1c32.7,0,59.2-26.6,59.2-59.2
	s-26.6-59.2-59.2-59.2H100.1z"/>
<path d="M88,169.7c-13.2,0-23.9-10.7-23.9-23.9s10.7-23.9,23.9-23.9s23.9,10.7,23.9,23.9S101.2,169.7,88,169.7z M88,132.8
	c-7.1,0-12.9,5.8-12.9,12.9s5.8,12.9,12.9,12.9s12.9-5.8,12.9-12.9S95.1,132.8,88,132.8z"/>
<path d="M148,168.7c-13.2,0-23.9-10.7-23.9-23.9s10.7-23.9,23.9-23.9s23.9,10.7,23.9,23.9S161.2,168.7,148,168.7z M148,131.8
	c-7.1,0-12.9,5.8-12.9,12.9s5.8,12.9,12.9,12.9s12.9-5.8,12.9-12.9S155.2,131.8,148,131.8z"/>
<path d="M208.1,169.7c-13.2,0-23.9-10.7-23.9-23.9s10.7-23.9,23.9-23.9s23.9,10.7,23.9,23.9S221.3,169.7,208.1,169.7z M208.1,132.8
	c-7.1,0-12.9,5.8-12.9,12.9s5.8,12.9,12.9,12.9s12.9-5.8,12.9-12.9S215.2,132.8,208.1,132.8z"/>
</svg>
