<?xml version="1.0" encoding="utf-8"?>
<!-- Generator: Adobe Illustrator 25.4.1, SVG Export Plug-In . SVG Version: 6.00 Build 0)  -->
<svg version="1.1" id="Layer_1" xmlns="http://www.w3.org/2000/svg" xmlns:xlink="http://www.w3.org/1999/xlink" x="0px" y="0px"
	 viewBox="0 0 300 300" style="enable-background:new 0 0 300 300;" xml:space="preserve">
<g>
	<circle cx="160.4" cy="197.7" r="6.8"/>
	<path d="M273.8,133.7L154,34.4c-2.3-1.9-5.6-1.9-8,0L26.2,133.7c-1.1,0.9-1.7,2.2-1.7,3.6v20.8c0,2.6,2.1,4.7,4.7,4.7h28.7v65.7H50
		c-2.6,0-4.7,2.1-4.7,4.7v20.8c0,2.6,2.1,4.7,4.7,4.7h200c2.6,0,4.7-2.1,4.7-4.7v-20.8c0-2.6-2.1-4.7-4.7-4.7h-7.8v-65.7h28.7
		c2.6,0,4.7-2.1,4.7-4.7v-20.8C275.5,135.9,274.9,134.5,273.8,133.7z M174.5,166.9v61.5h-49v-61.5H174.5z M146.1,59.3L33.8,148.4v-9
		l112.8-93.2c1.9-1.6,4.7-1.6,6.7,0l112.8,93.2v9L153.9,59.3c-1.1-0.9-2.5-1.4-3.9-1.4S147.3,58.4,146.1,59.3z M232.8,158.1v70.3
		h-49v-66.2c0-2.6-2.1-4.7-4.7-4.7h-58.3c-2.6,0-4.7,2.1-4.7,4.7v66.2h-49v-70.3c0-2.6-2.1-4.7-4.7-4.7H42.6l104.2-82.6
		c1.9-1.5,4.6-1.5,6.5,0l104.2,82.6h-19.9C234.9,153.4,232.8,155.5,232.8,158.1z M245.3,237.8v11.5H54.7v-11.5H245.3z"/>
	<path d="M171,112.4c-0.1-0.2-0.2-0.4-0.4-0.7l-0.1-0.1c-0.1-0.1-0.2-0.2-0.3-0.3l-0.1-0.2c-0.1-0.1-0.1-0.1-0.2-0.2
		c-0.1-0.1-0.1-0.1-0.3-0.2l-0.1-0.1c-0.1-0.1-0.2-0.2-0.3-0.3l-0.2-0.1c-0.2-0.1-0.4-0.2-0.6-0.3c0,0-0.1,0-0.1,0
		c-0.6-0.2-1.1-0.3-1.7-0.3h-33.1c0,0-0.1,0-0.1,0l-0.1,0c-2.6,0-4.7,2.1-4.7,4.7v27.2c0,2.6,2.1,4.7,4.7,4.7c0,0,0.1,0,0.1,0
		l33.2,0c0.6,0,1.1-0.1,1.7-0.3l0.1,0c0.2-0.1,0.4-0.2,0.7-0.4l0.1-0.1c0.1-0.1,0.2-0.2,0.3-0.3l0.2-0.1c0.1-0.1,0.1-0.1,0.2-0.2
		c0.1-0.1,0.1-0.1,0.2-0.3l0.1-0.1c0.1-0.1,0.2-0.2,0.3-0.3c0,0,0.1-0.1,0.1-0.2c0.1-0.2,0.2-0.4,0.3-0.6c0,0,0-0.1,0-0.1
		c0.2-0.6,0.3-1.1,0.3-1.7v-27.2c0-0.6-0.1-1.1-0.3-1.7L171,112.4z M162,118.9v17.9h-24v-17.9H162z"/>
	<path d="M79.2,145.1c-2.6,0-4.7,2.1-4.7,4.7s2.1,4.7,4.7,4.7s4.7-2.1,4.7-4.7S81.7,145.1,79.2,145.1z"/>
	<path d="M79.2,161.8c-2.6,0-4.7,2.1-4.7,4.7v33.3c0,2.6,2.1,4.7,4.7,4.7s4.7-2.1,4.7-4.7v-33.3C83.8,163.8,81.7,161.8,79.2,161.8z"
		/>
</g>
</svg>
