<?xml version="1.0" encoding="utf-8"?>
<!-- Generator: Adobe Illustrator 25.4.1, SVG Export Plug-In . SVG Version: 6.00 Build 0)  -->
<svg version="1.1" id="Layer_1" xmlns="http://www.w3.org/2000/svg" xmlns:xlink="http://www.w3.org/1999/xlink" x="0px" y="0px"
	 viewBox="0 0 300 300" style="enable-background:new 0 0 300 300;" xml:space="preserve">
<g>
	<path d="M155.3,90.9h-16.9c-1.1,0-2.2-0.4-3-1.3c-0.8-0.8-1.2-1.8-1.2-2.9c0-2.3,1.9-4.2,4.2-4.2h21.1c2.3,0,4.2-1.9,4.2-4.2
		c0-2.3-1.9-4.2-4.2-4.2h-8.4v-4.2c0-2.3-1.9-4.2-4.2-4.2c-2.3,0-4.2,1.9-4.2,4.2v4.2h-4.2c-7,0-12.7,5.7-12.7,12.7
		c0,3.4,1.3,6.6,3.7,8.9c2.4,2.4,5.5,3.8,9,3.8h16.9c2.3,0,4.2,1.9,4.2,4.2c0,1.1-0.4,2.2-1.3,3c-0.8,0.8-1.8,1.2-2.9,1.2h-21.1
		c-2.3,0-4.2,1.9-4.2,4.2c0,2.3,1.9,4.2,4.2,4.2h8.4v4.2c0,2.3,1.9,4.2,4.2,4.2c2.3,0,4.2-1.9,4.2-4.2v-4.2h4.2
		c3.4,0,6.6-1.3,8.9-3.7c2.4-2.4,3.8-5.5,3.8-9C168,96.6,162.3,90.9,155.3,90.9z"/>
	<path d="M256.5,36.1H37.2c-2.3,0-4.2,1.9-4.2,4.2V150c0,2.3,1.9,4.2,4.2,4.2h38v4.2c0,27.6,9,55,25.3,77.3l0,27.6
		c0,2.2,1.6,4.2,3.8,4.4c2.5,0.2,4.6-1.7,4.6-4.2v-29.2c0-0.9-0.3-1.8-0.8-2.5c-15.8-21.1-24.5-47.1-24.5-73.4v-4.2h97v8.7
		c-10,1-35.1,6.2-46.1,31.8c-0.9,2.1,0.1,4.6,2.2,5.5c2.1,0.9,4.6-0.1,5.5-2.2c11.4-26.5,41.3-27,42.5-27c2.3,0,4.2-1.9,4.2-4.2
		v-48.5c0-2.8,1.1-5.5,3.1-7.5c2-2.1,4.8-3.2,7.7-3.1c5.8,0.2,10.2,5.1,10.2,10.9l0,39.7c0,13.1-2.1,26.2-6.3,38.7
		c-4.2,12.4-10.3,24.1-18.2,34.7c-0.5,0.7-0.9,1.6-0.9,2.5v29c0,2.2,1.6,4.2,3.8,4.4c2.5,0.2,4.6-1.7,4.6-4.2v-27.8
		c8-11,14.3-23.1,18.6-36c4.5-13.4,6.7-27.3,6.7-41.4v-4.2h38c2.3,0,4.2-1.9,4.2-4.2V40.3C260.8,38,258.9,36.1,256.5,36.1z
		 M113.1,95.1c0-18.6,15.1-33.7,33.7-33.7c18.6,0,33.7,15.1,33.7,33.7s-15.1,33.7-33.7,33.7C128.3,128.9,113.1,113.7,113.1,95.1z
		 M121.7,128.9H78.5c-4.4-8.7-11.5-15.8-20.2-20.2v-27c8.7-4.4,15.8-11.5,20.2-20.2h43.2c-10.3,7.7-17,19.9-17,33.7
		S111.4,121.2,121.7,128.9z M180.6,120.3v8.5h-8.5C175.3,126.5,178.2,123.6,180.6,120.3z M199.6,99.4c-4.2,0-8.1,1.4-11.3,3.9
		c0.5-2.6,0.8-5.3,0.8-8.1c0-13.8-6.7-26-17-33.7h43.2c4.4,8.7,11.5,15.8,20.2,20.2v27c-6.8,3.4-12.6,8.5-16.9,14.7v-5
		C218.6,107.9,210.1,99.4,199.6,99.4z M252.3,145.8h-33.7v-8.5c1.4-0.2,2.6-1.1,3.2-2.4c3.8-8.8,10.8-15.8,19.6-19.6
		c1.5-0.7,2.5-2.2,2.5-3.9V78.9c0-1.7-1-3.2-2.5-3.9c-8.8-3.8-15.8-10.8-19.6-19.6c-0.7-1.5-2.2-2.5-3.9-2.5H75.8
		c-1.7,0-3.2,1-3.9,2.5c-3.8,8.8-10.8,15.8-19.6,19.6c-1.5,0.7-2.5,2.2-2.5,3.9v32.4c0,1.7,1,3.2,2.5,3.9
		C61.2,119,68.2,126,72,134.8c0.7,1.5,2.2,2.5,3.9,2.5h104.8v8.4H41.4V44.5h210.9V145.8z"/>
	<path d="M138.4,225.9c-2.3,0-4.2,1.9-4.2,4.2v12.7c0,2.3,1.9,4.2,4.2,4.2c2.3,0,4.2-1.9,4.2-4.2v-12.7
		C142.6,227.8,140.8,225.9,138.4,225.9z"/>
	<path d="M155.3,225.9c-2.3,0-4.2,1.9-4.2,4.2v12.7c0,2.3,1.9,4.2,4.2,4.2c2.3,0,4.2-1.9,4.2-4.2v-12.7
		C159.5,227.8,157.6,225.9,155.3,225.9z"/>
</g>
</svg>
