<?xml version="1.0" encoding="utf-8"?>
<!-- Generator: Adobe Illustrator 25.4.1, SVG Export Plug-In . SVG Version: 6.00 Build 0)  -->
<svg version="1.1" id="Layer_1" xmlns="http://www.w3.org/2000/svg" xmlns:xlink="http://www.w3.org/1999/xlink" x="0px" y="0px"
	 viewBox="0 0 300 300" style="enable-background:new 0 0 300 300;" xml:space="preserve">
<g>
	<path d="M268,225.6c-2.4,0-4.3,1.9-4.3,4.3v7.1H36.3v-7.1c0-2.4-1.9-4.3-4.3-4.3s-4.3,1.9-4.3,4.3v11.4c0,2.4,1.9,4.3,4.3,4.3h236
		c2.4,0,4.3-1.9,4.3-4.3v-11.4C272.3,227.6,270.4,225.6,268,225.6z"/>
	<path d="M268,54.3H32c-2.4,0-4.3,1.9-4.3,4.3v129.4c0,2.4,1.9,4.3,4.3,4.3h236c2.4,0,4.3-1.9,4.3-4.3V58.6
		C272.3,56.3,270.4,54.3,268,54.3z M250,170c1.3-1.3,2.9-2.4,4.5-3.1c1.1-0.5,1.9-1.3,2.3-2.4c0.4-1.1,0.4-2.2-0.1-3.3
		c-0.5-1.1-1.3-1.9-2.4-2.3c-1.1-0.4-2.2-0.4-3.3,0.1c-2.7,1.2-5.1,2.8-7.2,4.9c-5.2,5.2-7.6,12.6-6.5,19.8h-54.1
		c3.5-1.9,6.8-4.2,9.9-6.6h33c2.4,0,4.3-1.9,4.3-4.3c0-12.3,10-22.3,22.3-22.3c2.4,0,4.3-1.9,4.3-4.3v-45.7c0-2.4-1.9-4.3-4.3-4.3
		c-12.3,0-22.3-10-22.3-22.3c0-2.4-1.9-4.3-4.3-4.3h-33c-3.1-2.5-6.4-4.7-9.9-6.6h80.5v17.7c-5,1.2-10.1-0.3-13.7-3.9
		c-1.3-1.3-2.4-2.9-3.1-4.5c-0.9-2.2-3.5-3.2-5.7-2.2c-2.2,1-3.2,3.5-2.2,5.7c1.2,2.7,2.8,5.1,4.9,7.2c4.4,4.4,10.3,6.8,16.4,6.8
		c1.1,0,2.2-0.1,3.4-0.3v94.4h-17.7C244.9,178.8,246.3,173.7,250,170z M36.3,166.1c5-1.2,10.1,0.3,13.7,3.9c1.3,1.3,2.4,2.9,3.1,4.5
		c0.7,1.6,2.2,2.6,4,2.6c0.6,0,1.2-0.1,1.7-0.4c1.1-0.5,1.9-1.3,2.3-2.4c0.4-1.1,0.4-2.2-0.1-3.3c-1.2-2.7-2.8-5.1-4.9-7.2
		c-5.2-5.2-12.6-7.6-19.8-6.5V62.9h17.7c1.2,5-0.3,10.1-3.9,13.7c-1.3,1.3-2.9,2.4-4.5,3.1c-1.1,0.5-1.9,1.3-2.3,2.4
		c-0.4,1.1-0.4,2.2,0.1,3.3c0.7,1.6,2.2,2.6,4,2.6c0.6,0,1.2-0.1,1.7-0.4c2.7-1.2,5.1-2.8,7.2-4.9c5.2-5.2,7.6-12.6,6.5-19.8h54.1
		c-3.5,1.9-6.8,4.2-9.9,6.6h-33c-2.4,0-4.3,1.9-4.3,4.3c0,12.3-10,22.3-22.3,22.3c-2.4,0-4.3,1.9-4.3,4.3v45.7
		c0,2.4,1.9,4.3,4.3,4.3c12.3,0,22.3,10,22.3,22.3c0,2.4,1.9,4.3,4.3,4.3h33c3.1,2.5,6.4,4.7,9.9,6.6H36.3V166.1z M97.9,78.2
		C87,90.8,81,106.8,81,123.4c0,16.6,6,32.6,17,45.2H77.9c-1.9-13.7-12.7-24.4-26.4-26.4v-37.7c13.7-1.9,24.4-12.7,26.4-26.3H97.9z
		 M222.1,78.2c1.9,13.7,12.7,24.4,26.4,26.3v37.7c-13.7,1.9-24.4,12.7-26.4,26.4h-20.1c10.9-12.6,17-28.6,17-45.2
		c0-16.6-6-32.6-17-45.2H222.1z M210.4,123.4c0,17.8-7.8,34.7-21.5,46.2c-10.9,9.2-24.7,14.2-38.9,14.2s-28.1-5-38.9-14.2
		c-13.7-11.5-21.5-28.4-21.5-46.2c0-17.8,7.8-34.7,21.5-46.2c10.9-9.2,24.7-14.2,38.9-14.2s28.1,5,38.9,14.2l0,0
		C202.6,88.7,210.4,105.5,210.4,123.4z"/>
	<path d="M268,199c-2.4,0-4.3,1.9-4.3,4.3v7.1H36.3v-7.1c0-2.4-1.9-4.3-4.3-4.3s-4.3,1.9-4.3,4.3v11.4c0,2.4,1.9,4.3,4.3,4.3h236
		c2.4,0,4.3-1.9,4.3-4.3v-11.4C272.3,200.9,270.4,199,268,199z"/>
	<path d="M180.5,141.9h-32.4c1.3-5.4,2.1-11.4,2.3-18h14.8c2.4,0,4.3-1.9,4.3-4.3s-1.9-4.3-4.3-4.3h-14.8c0-2-0.1-3.8-0.2-5.5
		c-0.3-4.7,0.6-8.5,2.6-10.6c1.2-1.3,2.8-1.9,4.9-1.9h0.2c4.4,0,7.3,1.9,7.9,2.3c0.9,1.1,2.3,1.6,3.8,1.4c1.3-0.2,2.5-1,3.2-2.1
		l7.6-12.4c1.1-1.8,0.7-4.1-0.9-5.5c-0.4-0.3-9-7.6-21.8-7.6c-9.9,0-18,3.5-24.1,10.5c-4.4,5.1-7.5,14.6-7.3,22.6
		c0.1,3.1,0.1,6-0.1,8.7h-6.6c-2.4,0-4.3,1.9-4.3,4.3s1.9,4.3,4.3,4.3h5.7c-1.4,9.5-4.4,17.2-9.2,23.6c-0.6,0.8-0.8,1.6-0.8,2.6
		v11.4c0,2.4,1.9,4.3,4.3,4.3h60.9c2.4,0,4.3-1.9,4.3-4.3v-15.2C184.8,143.8,182.8,141.9,180.5,141.9z M134.8,106.3
		c-0.1-5.9,2.1-13.2,5.2-16.8c4.4-5.1,10.2-7.6,17.6-7.6c5.6,0,10.2,1.9,13.2,3.5l-3.2,5.2c-2.8-1.2-6.6-2-10.1-2.1
		c-4.5,0-8.3,1.7-11.1,4.7c-3.6,3.9-5.3,9.9-4.9,17c0.5,7.7,0.7,22.4-3.3,34.6c-0.4,1.3-0.2,2.8,0.6,3.9c0.8,1.1,2.1,1.8,3.5,1.8
		h33.8v6.6h-52.3v-5.7C134.3,136.4,135.1,118.5,134.8,106.3z"/>
</g>
</svg>
