<?xml version="1.0" encoding="utf-8"?>
<!-- Generator: Adobe Illustrator 25.4.1, SVG Export Plug-In . SVG Version: 6.00 Build 0)  -->
<svg version="1.1" id="Layer_1" xmlns="http://www.w3.org/2000/svg" xmlns:xlink="http://www.w3.org/1999/xlink" x="0px" y="0px"
	 viewBox="0 0 300 300" style="enable-background:new 0 0 300 300;" xml:space="preserve">
<g>
	<path d="M130.4,54.5l-24-1c-2.6-0.1-4.9,1.9-5,4.6l-0.8,17.8L74.2,49.2c-1.8-1.8-4.6-1.9-6.5-0.3c-0.1,0.1-0.3,0.2-0.4,0.3L50.3,66
		c-0.1,0.1-0.3,0.2-0.4,0.4c-1.9,1.9-1.9,4.9-0.1,6.8L76.1,100l-17.8,0.5c-2.6,0.1-4.7,2.3-4.6,4.9l0.7,24c0.1,2.7,2.3,4.7,4.9,4.6
		l68.3-2.1c2.4-0.1,4.3-2,4.4-4.3l3-68.2C135.1,56.9,133,54.6,130.4,54.5z M123,113.6l-0.4,8.9l-14.5,0.3l-44.3,1.6L63.4,110l24-0.7
		c2.3-0.1,4.2-1.7,4.6-4c0.3-1.6-0.4-3.1-1.5-4.2L60.1,70l10.7-10.5l30.7,30.9c1.7,1.7,4.6,2,6.6,0.2c1-0.9,1.6-2.2,1.6-3.6l1-23.8
		l14.4,0.6L123,113.6z"/>
	<path d="M165,59.5l3,68.2c0.1,2.4,2,4.3,4.4,4.3l68.3,2.1c2.6,0.1,4.9-2,4.9-4.6l0.7-24c0.1-2.6-2-4.9-4.6-4.9l-17.8-0.5l26.3-26.8
		c1.9-1.9,1.8-4.9-0.1-6.8c-0.1-0.1-0.3-0.3-0.4-0.4l-17-16.8c-0.1-0.1-0.3-0.2-0.4-0.3c-1.9-1.6-4.7-1.5-6.5,0.3l-26.5,26.7
		l-0.8-17.8c-0.1-2.6-2.4-4.7-5-4.6l-24,1C167,54.6,164.9,56.9,165,59.5z M174.8,63.9l14.4-0.6l1,23.8c0.1,1.4,0.6,2.7,1.6,3.6
		c2,1.7,4.8,1.5,6.6-0.2l30.7-30.9L239.9,70l-30.4,31c-1.1,1.1-1.7,2.7-1.5,4.2c0.4,2.3,2.3,4,4.6,4l24,0.7l-0.4,14.4l-44.3-1.6
		l-14.5-0.3l-0.4-8.9L174.8,63.9z"/>
	<path d="M135,240.5l-3-68.2c-0.1-2.4-2-4.3-4.4-4.3l-68.3-2.1c-2.6-0.1-4.9,2-4.9,4.6l-0.7,24c-0.1,2.6,2,4.9,4.6,4.9l17.8,0.5
		l-26.3,26.8c-1.9,1.9-1.8,4.9,0.1,6.8c0.1,0.1,0.3,0.3,0.4,0.4l17,16.8c0.1,0.1,0.3,0.2,0.4,0.3c1.9,1.6,4.7,1.5,6.5-0.3l26.5-26.7
		l0.8,17.8c0.1,2.6,2.4,4.7,5,4.6l24-1C133,245.4,135.1,243.1,135,240.5z M125.2,236.1l-14.4,0.6l-1-23.8c-0.1-1.4-0.6-2.7-1.6-3.6
		c-2-1.7-4.8-1.5-6.6,0.2l-30.7,30.9L60.1,230l30.4-31c1.1-1.1,1.7-2.7,1.5-4.2c-0.4-2.3-2.3-4-4.6-4l-24-0.7l0.4-14.4l44.3,1.6
		l14.5,0.3l0.4,8.9L125.2,236.1z"/>
	<path d="M169.6,245.5l24,1c2.6,0.1,4.9-1.9,5-4.6l0.8-17.8l26.5,26.7c1.8,1.8,4.6,1.9,6.5,0.3c0.1-0.1,0.3-0.2,0.4-0.3l17-16.8
		c0.1-0.1,0.3-0.2,0.4-0.4c1.9-1.9,1.9-4.9,0.1-6.8L223.9,200l17.8-0.5c2.6-0.1,4.7-2.3,4.6-4.9l-0.7-24c-0.1-2.7-2.3-4.7-4.9-4.6
		l-68.3,2.1c-2.4,0.1-4.3,2-4.4,4.3l-3,68.2C164.9,243.1,167,245.4,169.6,245.5z M177,186.4l0.4-8.9l14.5-0.3l44.3-1.6l0.4,14.4
		l-24,0.7c-2.3,0.1-4.2,1.7-4.6,4c-0.3,1.6,0.4,3.1,1.5,4.2l30.4,31l-10.7,10.5l-30.7-30.9c-1.7-1.7-4.6-2-6.6-0.2
		c-1,0.9-1.6,2.2-1.6,3.6l-1,23.8l-14.4-0.6L177,186.4z"/>
</g>
</svg>
