<?xml version="1.0" encoding="utf-8"?>
<!-- Generator: Adobe Illustrator 25.4.1, SVG Export Plug-In . SVG Version: 6.00 Build 0)  -->
<svg version="1.1" xmlns="http://www.w3.org/2000/svg" xmlns:xlink="http://www.w3.org/1999/xlink" x="0px" y="0px"
	 viewBox="0 0 61.9 70.8" style="enable-background:new 0 0 61.9 70.8;" xml:space="preserve">
<style type="text/css">
	.st0{fill:#F7F9FC;}
	.st1{fill:#FFFFFF;stroke:#D1D4D8;stroke-width:1.5;stroke-miterlimit:10;}
	.st2{fill:#333333;}
	.st3{fill:#002C73;}
	.st4{fill:#FFFFFF;}
	.st5{fill:#0F6FDE;}
	.st6{fill:#FFFFFF;stroke:#E6E6E6;stroke-width:1.5;stroke-miterlimit:10;}
	.st7{fill:none;stroke:#374A61;stroke-width:3;stroke-miterlimit:10;}
	.st8{fill:none;stroke:#374A61;stroke-width:2;stroke-linecap:round;stroke-miterlimit:10;}
	.st9{display:none;fill:#FFFFFF;}
	.st10{fill:none;stroke:#15B54A;stroke-miterlimit:10;}
	.st11{fill:#202625;}
	.st12{fill:#D0F4D2;}
	.st13{fill:#FFFFFF;stroke:#202625;stroke-miterlimit:10;}
	.st14{fill:#15B54A;}
	.st15{opacity:0.72;fill:#FFFFFF;stroke:#808080;stroke-width:0.75;stroke-miterlimit:10;}
	.st16{fill:none;stroke:#808080;stroke-width:0.75;stroke-miterlimit:10;}
	.st17{fill:#D0F4D2;stroke:#202625;stroke-width:0.5;stroke-miterlimit:10;}
	.st18{fill:none;stroke:#202625;stroke-width:1.5;stroke-linecap:round;stroke-linejoin:round;stroke-miterlimit:10;}
	.st19{fill:none;stroke:#202625;stroke-miterlimit:10;}
	.st20{fill:url(#SVGID_00000076566174071144256420000007029360703756734362_);}
	.st21{fill:#5883EC;}
	.st22{fill:url(#SVGID_00000132068328657203252510000010432807550233129109_);}
	.st23{fill:url(#SVGID_00000081636854948495161500000015630292727909746834_);}
	.st24{fill:#3D3D59;}
	.st25{fill:none;stroke:#5883EC;stroke-miterlimit:10;}
	.st26{fill:#F3F3FB;}
	.st27{fill:url(#SVGID_00000153663106297563930110000013583488944629457068_);}
	.st28{fill:#3592F1;}
	.st29{fill:none;stroke:#FFFFFF;stroke-width:1.5;stroke-linecap:round;stroke-linejoin:round;stroke-miterlimit:10;}
	.st30{fill:#ACD5FF;}
	.st31{fill:#0052E4;}
	.st32{fill:#FEC739;}
	.st33{fill:#313131;}
	.st34{fill:#FF8E9E;}
	.st35{fill:#3375E9;}
	.st36{fill:#99BAF4;}
	.st37{clip-path:url(#SVGID_00000170244587269092638460000000161306341582366101_);}
	.st38{clip-path:url(#SVGID_00000083051090044849015690000017558199302388701602_);}
	.st39{clip-path:url(#SVGID_00000043447863814117820550000003881111655331536774_);}
	.st40{clip-path:url(#SVGID_00000054249978576777403670000003184016263320392105_);}
	.st41{clip-path:url(#SVGID_00000040543639391029769560000004478694487947776683_);}
	.st42{clip-path:url(#SVGID_00000021113900908000828650000004869817510530434194_);}
	.st43{fill:none;stroke:#313131;stroke-linecap:round;stroke-linejoin:round;stroke-miterlimit:10;}
	.st44{fill:none;stroke:#333333;stroke-width:3;stroke-linejoin:round;stroke-miterlimit:10;}
	.st45{fill:none;stroke:#333333;stroke-width:3;stroke-linecap:round;stroke-linejoin:round;stroke-miterlimit:10;}
</style>
<g id="Layer_1">
</g>
<g id="Layer_2">
</g>
<g id="Layer_5">
</g>
<g id="Layer_4">
</g>
<g id="Layer_6">
	<g>
		<g>
			<g>
				<defs>
					<rect id="SVGID_00000106116469753755771710000003616936451421174450_" x="-166.7" y="2.6" width="143.4" height="65.6"/>
				</defs>
				<clipPath id="SVGID_00000088820334371448762030000014378274641178101405_">
					<use xlink:href="#SVGID_00000106116469753755771710000003616936451421174450_"  style="overflow:visible;"/>
				</clipPath>
				<g style="clip-path:url(#SVGID_00000088820334371448762030000014378274641178101405_);">
					<defs>
						<rect id="SVGID_00000031888575406027916570000003274984375782655641_" x="-255.9" y="-33.4" width="319.3" height="139.7"/>
					</defs>
					<clipPath id="SVGID_00000062907063521320573200000005860676836846741677_">
						<use xlink:href="#SVGID_00000031888575406027916570000003274984375782655641_"  style="overflow:visible;"/>
					</clipPath>
				</g>
			</g>
		</g>
		<g>
			<g>
				<defs>
					<rect id="SVGID_00000009574282912871670280000005303163813242362506_" x="-166.7" y="2.6" width="143.4" height="65.6"/>
				</defs>
				<use xlink:href="#SVGID_00000009574282912871670280000005303163813242362506_"  style="overflow:visible;fill:#333333;"/>
				<clipPath id="SVGID_00000096036083607716284030000003836678514520251051_">
					<use xlink:href="#SVGID_00000009574282912871670280000005303163813242362506_"  style="overflow:visible;"/>
				</clipPath>
				<g style="clip-path:url(#SVGID_00000096036083607716284030000003836678514520251051_);">
					<defs>
						<rect id="SVGID_00000107590789159001123860000006093270038037560764_" x="-255.9" y="-33.4" width="319.3" height="139.7"/>
					</defs>
					<use xlink:href="#SVGID_00000107590789159001123860000006093270038037560764_"  style="overflow:visible;fill:#333333;"/>
					<clipPath id="SVGID_00000183248370572185116700000012062368688169430716_">
						<use xlink:href="#SVGID_00000107590789159001123860000006093270038037560764_"  style="overflow:visible;"/>
					</clipPath>
					<g style="clip-path:url(#SVGID_00000183248370572185116700000012062368688169430716_);">
						
							<image style="overflow:visible;" width="800" height="350" xlink:href="65CCA394.jpg"  transform="matrix(0.3991 0 0 0.3991 -255.905 -33.3582)">
						</image>
					</g>
				</g>
			</g>
		</g>
		<g>
			<g>
				<defs>
					<rect id="SVGID_00000031197161572000670310000013449584647408657833_" x="-166.7" y="2.6" width="143.4" height="65.6"/>
				</defs>
				<clipPath id="SVGID_00000183207159042363322950000002473702526131911810_">
					<use xlink:href="#SVGID_00000031197161572000670310000013449584647408657833_"  style="overflow:visible;"/>
				</clipPath>
				<g style="clip-path:url(#SVGID_00000183207159042363322950000002473702526131911810_);">
					<defs>
						<rect id="SVGID_00000163762129804949985010000017651283473768361092_" x="-255.9" y="-33.4" width="319.3" height="139.7"/>
					</defs>
					<clipPath id="SVGID_00000004529172006677623560000014193030959376752299_">
						<use xlink:href="#SVGID_00000163762129804949985010000017651283473768361092_"  style="overflow:visible;"/>
					</clipPath>
				</g>
			</g>
		</g>
	</g>
</g>
<g id="Layer_7">
</g>
<g id="Layer_3">
	<path class="st2" d="M58.8,66.5l-9.4-12.8c-1.4-1.9-3.1-3.4-5.2-4.5c-2.1-1.1-4.3-1.7-6.7-1.7h-4.4V45c3.7-0.9,5.9-4.6,5-8.2
		c-0.7-3-3.5-5.2-6.6-5.2h-3.1c-0.3,0-0.5-0.2-0.5-0.5c0-0.3,0.2-0.5,0.5-0.5h7.8c0.6,0,1-0.5,1-1v-4.2c0-0.6-0.5-1-1-1h-3.1v-2.4
		h1.9c0.7,0,1.4-0.1,2-0.4c0.3-0.1,0.5-0.3,0.7-0.4c7.6,4.2,10.2,13.8,6,21.4c-0.4,0.7-0.9,1.4-1.4,2.1C42,45,42,45.6,42.4,46
		c0.4,0.4,1.1,0.3,1.5-0.1c0,0,0,0,0-0.1c6.1-7.7,4.9-18.9-2.8-25c-0.6-0.5-1.3-1-2-1.4c0.4-0.7,0.6-1.4,0.6-2.2c0-0.2,0-0.3,0-0.5
		l2.5,0c0.4,0,0.8,0.2,1.1,0.5l6.7,9.1c0.9,1.2,2.3,1.9,3.8,1.9c1,0,2-0.3,2.7-1c1.9-1.5,2.2-4.2,0.8-6.2L47.2,7.4
		c-0.7-1-1.7-1.8-2.8-2.4c-1.1-0.6-2.3-0.9-3.5-1L25.7,3.4c-1.6-0.1-3.1-0.7-4.2-1.9c-0.4-0.4-1.1-0.4-1.5,0c-0.4,0.4-0.4,1.1,0,1.5
		c1.5,1.5,3.5,2.4,5.6,2.5l15.2,0.6c0.9,0,1.8,0.3,2.6,0.7c0.8,0.4,1.5,1,2.1,1.8l10.2,13.9c0.4,0.5,0.5,1.2,0.4,1.8
		c-0.1,0.6-0.4,1.1-0.9,1.5c-0.5,0.4-1.1,0.6-1.8,0.5c-0.7-0.1-1.4-0.5-1.8-1.1l-6.7-9.1c-0.6-0.9-1.7-1.4-2.7-1.4l-3.1,0
		c-0.8-1.5-2.3-2.4-4-2.4l-9.3-0.3c-0.6,0-1.1,0.4-1.1,1c0,0.6,0.4,1.1,1,1.1c0,0,0,0,0,0l9.3,0.3c2.7,0,2.6,2.8,2.6,2.8
		c0,2.2-2.3,2.6-2.7,2.6H22.6c-2-0.1-3.9-0.6-5.7-1.5c-1.8-0.9-3.3-2.3-4.5-3.9L3,1.6C2.7,1.2,2,1.1,1.5,1.4C1.1,1.8,1,2.4,1.3,2.9
		l9.4,12.8c1.4,1.9,3.1,3.4,5.2,4.5c2.1,1.1,4.3,1.7,6.7,1.7h4.4v2.5c-3.7,0.9-5.9,4.6-5,8.2c0.7,3,3.5,5.2,6.6,5.2h3.1
		c0.3,0,0.5,0.2,0.5,0.5c0,0.3-0.2,0.5-0.5,0.5c0,0-0.1,0-0.1,0c0,0-0.1,0-0.1,0h-7.7c-0.6,0-1,0.5-1,1v4.2c0,0.6,0.5,1,1,1h3.1v2.4
		h-1.9c-0.7,0-1.4,0.1-2,0.4c-0.3,0.1-0.5,0.3-0.7,0.4c-7.6-4.2-10.2-13.8-6-21.4c0.4-0.7,0.9-1.4,1.4-2.1c0.3-0.5,0.3-1.1-0.2-1.5
		c-0.4-0.3-1.1-0.3-1.4,0.2c-6.1,7.7-4.9,18.9,2.8,25c0.6,0.5,1.3,1,2,1.4c-0.4,0.8-0.6,1.7-0.6,2.6l-2.5,0c-0.4,0-0.8-0.2-1.1-0.5
		l-6.7-9.1c-0.8-1-2-1.7-3.3-1.9c-1.2-0.2-2.4,0.2-3.3,0.9c-1.9,1.5-2.2,4.2-0.8,6.2L12.9,62c0.7,1,1.7,1.8,2.8,2.4
		c1.1,0.6,2.3,0.9,3.5,1L34.4,66c1.6,0.1,3.1,0.7,4.2,1.9c0.4,0.4,1.1,0.4,1.5,0c0.4-0.4,0.4-1.1,0-1.5c-1.5-1.5-3.5-2.4-5.6-2.5
		l-15.2-0.6c-0.9,0-1.8-0.3-2.6-0.7c-0.8-0.4-1.5-1-2.1-1.8L4.4,46.9c-0.4-0.5-0.5-1.2-0.4-1.8c0.1-0.6,0.4-1.1,0.9-1.5
		c0.5-0.4,1.1-0.6,1.8-0.5c0.7,0.1,1.4,0.5,1.8,1.1l6.7,9.1c0.6,0.9,1.7,1.4,2.7,1.4l3.1,0c0.8,1.5,2.3,2.4,4,2.4l9.3,0.3
		c0.6,0,1.1-0.4,1.1-1c0-0.6-0.4-1.1-1-1.1L25,55c-1.4,0-2.6-1-2.6-2.8c0-1.4,1.2-2.6,2.7-2.6h12.5c4,0.1,7.8,2.1,10.2,5.4l9.4,12.8
		c0.2,0.3,0.5,0.4,0.8,0.4c0.2,0,0.4-0.1,0.6-0.2C59.1,67.6,59.2,67,58.8,66.5z M29,21.9h2.1v2.4H29V21.9z M31.1,47.5H29v-2.4h2.1
		V47.5z M24.8,43.1V41c0,0,6.8,0,6.8,0c1.4,0,2.6-1.2,2.6-2.6c0-1.4-1.2-2.6-2.6-2.6h-3.1c-2.6,0-4.7-2.1-4.7-4.7
		c0-2.6,2.1-4.7,4.7-4.7h6.8v2.1c0,0-7.1,0-7.2,0c-1.3,0.2-2.2,1.3-2.2,2.6c0,1.4,1.2,2.6,2.6,2.6h3.1c2.6,0,4.7,2.1,4.7,4.7
		c0,2.6-2.1,4.7-4.7,4.7H24.8z"/>
</g>
</svg>
