<?xml version="1.0" encoding="utf-8"?>
<!-- Generator: Adobe Illustrator 25.4.1, SVG Export Plug-In . SVG Version: 6.00 Build 0)  -->
<svg version="1.1" xmlns="http://www.w3.org/2000/svg" xmlns:xlink="http://www.w3.org/1999/xlink" x="0px" y="0px"
	 viewBox="0 0 57 70.8" style="enable-background:new 0 0 57 70.8;" xml:space="preserve">
<style type="text/css">
	.st0{fill:#F7F9FC;}
	.st1{fill:#FFFFFF;stroke:#D1D4D8;stroke-width:1.5;stroke-miterlimit:10;}
	.st2{fill:#333333;}
	.st3{fill:#002C73;}
	.st4{fill:#FFFFFF;}
	.st5{fill:#0F6FDE;}
	.st6{fill:#FFFFFF;stroke:#E6E6E6;stroke-width:1.5;stroke-miterlimit:10;}
	.st7{fill:none;stroke:#374A61;stroke-width:3;stroke-miterlimit:10;}
	.st8{fill:none;stroke:#374A61;stroke-width:2;stroke-linecap:round;stroke-miterlimit:10;}
	.st9{display:none;fill:#FFFFFF;}
	.st10{fill:none;stroke:#15B54A;stroke-miterlimit:10;}
	.st11{fill:#202625;}
	.st12{fill:#D0F4D2;}
	.st13{fill:#FFFFFF;stroke:#202625;stroke-miterlimit:10;}
	.st14{fill:#15B54A;}
	.st15{opacity:0.72;fill:#FFFFFF;stroke:#808080;stroke-width:0.75;stroke-miterlimit:10;}
	.st16{fill:none;stroke:#808080;stroke-width:0.75;stroke-miterlimit:10;}
	.st17{fill:#D0F4D2;stroke:#202625;stroke-width:0.5;stroke-miterlimit:10;}
	.st18{fill:none;stroke:#202625;stroke-width:1.5;stroke-linecap:round;stroke-linejoin:round;stroke-miterlimit:10;}
	.st19{fill:none;stroke:#202625;stroke-miterlimit:10;}
	.st20{fill:url(#SVGID_00000086663611977881447970000017679584706575537327_);}
	.st21{fill:#5883EC;}
	.st22{fill:url(#SVGID_00000009557840994544276090000008000459815882714814_);}
	.st23{fill:url(#SVGID_00000101793695198325313800000009882401884958036123_);}
	.st24{fill:#3D3D59;}
	.st25{fill:none;stroke:#5883EC;stroke-miterlimit:10;}
	.st26{fill:#F3F3FB;}
	.st27{fill:url(#SVGID_00000100360990570810933320000003166657410508848264_);}
	.st28{fill:#3592F1;}
	.st29{fill:none;stroke:#FFFFFF;stroke-width:1.5;stroke-linecap:round;stroke-linejoin:round;stroke-miterlimit:10;}
	.st30{fill:#ACD5FF;}
	.st31{fill:#0052E4;}
	.st32{fill:#FEC739;}
	.st33{fill:#313131;}
	.st34{fill:#FF8E9E;}
	.st35{fill:#3375E9;}
	.st36{fill:#99BAF4;}
	.st37{clip-path:url(#SVGID_00000058549760683554120880000011019497707239429772_);}
	.st38{clip-path:url(#SVGID_00000089558497906463506470000003550000696550354876_);}
	.st39{clip-path:url(#SVGID_00000042723105208322511310000013629790417529388959_);}
	.st40{clip-path:url(#SVGID_00000011722875216108852640000011935464309738844053_);}
	.st41{clip-path:url(#SVGID_00000000925971376639709550000005567422473517937555_);}
	.st42{clip-path:url(#SVGID_00000108285490752054751200000012055328889110863273_);}
	.st43{fill:none;stroke:#313131;stroke-linecap:round;stroke-linejoin:round;stroke-miterlimit:10;}
	.st44{fill:none;stroke:#333333;stroke-width:3;stroke-linejoin:round;stroke-miterlimit:10;}
	.st45{fill:none;stroke:#333333;stroke-width:3;stroke-linecap:round;stroke-linejoin:round;stroke-miterlimit:10;}
</style>
<g id="Layer_1">
</g>
<g id="Layer_2">
</g>
<g id="Layer_5">
</g>
<g id="Layer_4">
</g>
<g id="Layer_6">
</g>
<g id="Layer_7">
</g>
<g id="Layer_3">
	<g>
		<g>
			<path class="st2" d="M28.7,22.3c-5.5,0-10.6,2.1-14.5,6c-3.9,3.9-6,9-6,14.5s2.1,10.6,6,14.5c3.9,3.9,9,6,14.5,6s10.6-2.1,14.5-6
				c3.9-3.9,6-9,6-14.5s-2.1-10.6-6-14.5C39.3,24.4,34.2,22.3,28.7,22.3z M44,43.8h3c-0.2,4.2-1.9,8.1-4.7,11.2L41,53.6
				c-0.4-0.4-1-0.4-1.4,0c-0.4,0.4-0.4,1,0,1.4l1.4,1.4c-3.1,2.8-7,4.4-11.2,4.7v-3h1c0.6,0,1-0.5,1-1V54c1.6,0,3.2-0.6,4.4-1.8
				c1.2-1.2,1.8-2.7,1.8-4.3v-2c0-3.4-2.8-6.1-6.1-6.1h-5.1c-0.6,0-1-0.5-1-1c0-0.3,0.1-0.5,0.3-0.7c0.2-0.2,0.4-0.3,0.7-0.3h8.2
				c0.6,0,1-0.5,1-1v-4.1c0-0.6-0.5-1-1-1h-3.1v-3.1c0-0.6-0.5-1-1-1h-1v-3c4.2,0.2,8.1,1.9,11.2,4.7l-1.4,1.4c-0.4,0.4-0.4,1,0,1.4
				c0.2,0.2,0.5,0.3,0.7,0.3s0.5-0.1,0.7-0.3l1.4-1.4c2.8,3.1,4.4,7,4.7,11.2h-3c-0.6,0-1,0.5-1,1S43.5,43.8,44,43.8z M17.8,53.6
				c-0.4-0.4-1-0.4-1.4,0L15,55c-2.8-3.1-4.4-7-4.7-11.2h3c0.6,0,1-0.5,1-1s-0.5-1-1-1h-3c0.2-4.2,1.9-8.1,4.7-11.2l1.4,1.4
				c0.2,0.2,0.5,0.3,0.7,0.3s0.5-0.1,0.7-0.3c0.4-0.4,0.4-1,0-1.4L16.4,29c3.1-2.8,7-4.4,11.2-4.7v3h-1c-0.6,0-1,0.5-1,1v3.1
				c-1.6,0-3.2,0.6-4.4,1.8c-1.2,1.2-1.8,2.7-1.8,4.3v2c0,3.4,2.8,6.1,6.1,6.1h5.1c0.6,0,1,0.5,1,1c0,0.3-0.1,0.5-0.3,0.7
				c-0.2,0.2-0.4,0.3-0.7,0.3h-9.2c-0.6,0-1,0.5-1,1V53c0,0.6,0.5,1,1,1h4.1v3.1c0,0.6,0.5,1,1,1h1v3c-4.2-0.2-8.1-1.9-11.2-4.7
				l1.4-1.4C18.2,54.6,18.2,54,17.8,53.6z M26.6,41.7h5.1c2.3,0,4.1,1.8,4.1,4.1v2c0,1.1-0.4,2.1-1.2,2.9c-0.8,0.8-1.8,1.2-2.9,1.2
				h-1c-0.6,0-1,0.5-1,1V56h-2V53c0-0.6-0.5-1-1-1h-4.1v-2h8.2c0.8,0,1.6-0.3,2.2-0.9c0.6-0.6,0.9-1.3,0.9-2.2
				c0-1.7-1.4-3.1-3.1-3.1h-5.1c-2.3,0-4.1-1.8-4.1-4.1v-2c0-1.1,0.4-2.1,1.2-2.9c0.8-0.8,1.8-1.2,2.9-1.2h1c0.6,0,1-0.5,1-1v-3.1h2
				v3.1c0,0.6,0.5,1,1,1h3.1v2h-7.2c-0.8,0-1.6,0.3-2.2,0.9c-0.6,0.6-0.9,1.3-0.9,2.2C23.6,40.3,24.9,41.7,26.6,41.7z"/>
			<path class="st2" d="M52.1,21.8C52.1,21.8,52.1,21.8,52.1,21.8C52.1,21.8,52.1,21.8,52.1,21.8l1.9-2.4c0.3-0.4,0.5-1,0.4-1.5
				c-0.1-0.5-0.4-1-0.8-1.3l-4-3.1c-0.4-0.3-1-0.5-1.5-0.4c-0.5,0.1-1,0.3-1.4,0.8l-1.9,2.4c0,0,0,0,0,0c0,0,0,0,0,0l-3.4,4.4
				c-2.4-1.4-4.9-2.3-7.6-2.9V11h2c1.1,0,2-0.9,2-2v-2c0-2.3-1.8-4.1-4.1-4.1H23.6c-1.1,0-2.1,0.4-2.9,1.2c-0.8,0.8-1.2,1.8-1.2,2.9
				v2c0,1.1,0.9,2,2,2h2v6.7c-2.7,0.5-5.2,1.5-7.6,2.9l-3.4-4.4c0,0,0,0,0,0c0,0,0,0,0,0l-1.9-2.4c-0.3-0.4-0.8-0.7-1.4-0.8
				c-0.5-0.1-1.1,0.1-1.5,0.4l-4,3.1c-0.4,0.3-0.7,0.8-0.8,1.3c-0.1,0.5,0.1,1.1,0.4,1.5l1.9,2.4c0,0,0,0,0,0c0,0,0,0,0,0l3.7,4.7
				c-3.8,4.6-5.9,10.3-5.9,16.3c0,14.1,11.5,25.6,25.6,25.6c14.1,0,25.6-11.5,25.6-25.6c0-5.9-2.1-11.7-5.9-16.3L52.1,21.8z
				 M45.8,18.2l4,3.1L47,24.9c-1.2-1.2-2.5-2.3-3.9-3.3L45.8,18.2z M48.3,14.9l4,3.1l-1.3,1.6l-4-3.1L48.3,14.9z M25.6,15.1h6.1v2.3
				c-2-0.2-4.1-0.2-6.1,0V15.1z M21.5,6.9c0-0.5,0.2-1.1,0.6-1.4c0.4-0.4,0.9-0.6,1.4-0.6h10.2c1.1,0,2,0.9,2,2v2H21.5V6.9z
				 M31.8,11v2h-6.1v-2H31.8z M10.3,24.9l-2.8-3.6l4-3.1l2.7,3.5C12.8,22.6,11.5,23.7,10.3,24.9z M9.1,14.9l1.3,1.6l-4,3.1L5,18.1
				L9.1,14.9z M28.7,66.3c-13,0-23.6-10.6-23.6-23.6c0-5.7,2.1-11.3,5.9-15.6c1.5-1.7,3.3-3.2,5.2-4.4c2.6-1.6,5.5-2.7,8.5-3.2
				c1.2-0.2,2.6-0.3,3.9-0.3c1.4,0,2.7,0.1,3.9,0.3c3,0.5,5.9,1.6,8.5,3.2c2,1.2,3.7,2.7,5.2,4.4c0,0,0,0,0,0
				c3.8,4.3,5.9,9.8,5.9,15.6C52.2,55.7,41.7,66.3,28.7,66.3z"/>
		</g>
	</g>
</g>
</svg>
