<?xml version="1.0" encoding="utf-8"?>
<!-- Generator: Adobe Illustrator 25.4.1, SVG Export Plug-In . SVG Version: 6.00 Build 0)  -->
<svg version="1.1" xmlns="http://www.w3.org/2000/svg" xmlns:xlink="http://www.w3.org/1999/xlink" x="0px" y="0px"
	 viewBox="0 0 70.9 70.8" style="enable-background:new 0 0 70.9 70.8;" xml:space="preserve">
<style type="text/css">
	.st0{fill:#F7F9FC;}
	.st1{fill:#FFFFFF;stroke:#D1D4D8;stroke-width:1.5;stroke-miterlimit:10;}
	.st2{fill:#333333;}
	.st3{fill:#002C73;}
	.st4{fill:#FFFFFF;}
	.st5{fill:#0F6FDE;}
	.st6{fill:#FFFFFF;stroke:#E6E6E6;stroke-width:1.5;stroke-miterlimit:10;}
	.st7{fill:none;stroke:#374A61;stroke-width:3;stroke-miterlimit:10;}
	.st8{fill:none;stroke:#374A61;stroke-width:2;stroke-linecap:round;stroke-miterlimit:10;}
	.st9{display:none;fill:#FFFFFF;}
	.st10{fill:none;stroke:#15B54A;stroke-miterlimit:10;}
	.st11{fill:#202625;}
	.st12{fill:#D0F4D2;}
	.st13{fill:#FFFFFF;stroke:#202625;stroke-miterlimit:10;}
	.st14{fill:#15B54A;}
	.st15{opacity:0.72;fill:#FFFFFF;stroke:#808080;stroke-width:0.75;stroke-miterlimit:10;}
	.st16{fill:none;stroke:#808080;stroke-width:0.75;stroke-miterlimit:10;}
	.st17{fill:#D0F4D2;stroke:#202625;stroke-width:0.5;stroke-miterlimit:10;}
	.st18{fill:none;stroke:#202625;stroke-width:1.5;stroke-linecap:round;stroke-linejoin:round;stroke-miterlimit:10;}
	.st19{fill:none;stroke:#202625;stroke-miterlimit:10;}
	.st20{fill:url(#SVGID_00000155840323993104818050000003754585598363799710_);}
	.st21{fill:#5883EC;}
	.st22{fill:url(#SVGID_00000073703387339266640110000003985425050744176771_);}
	.st23{fill:url(#SVGID_00000000936785346874968630000015081298154445888933_);}
	.st24{fill:#3D3D59;}
	.st25{fill:none;stroke:#5883EC;stroke-miterlimit:10;}
	.st26{fill:#F3F3FB;}
	.st27{fill:url(#SVGID_00000114770777835816846090000018298874298508864947_);}
	.st28{fill:#3592F1;}
	.st29{fill:none;stroke:#FFFFFF;stroke-width:1.5;stroke-linecap:round;stroke-linejoin:round;stroke-miterlimit:10;}
	.st30{fill:#ACD5FF;}
	.st31{fill:#0052E4;}
	.st32{fill:#FEC739;}
	.st33{fill:#313131;}
	.st34{fill:#FF8E9E;}
	.st35{fill:#3375E9;}
	.st36{fill:#99BAF4;}
	.st37{clip-path:url(#SVGID_00000106836828551363132920000013573823395305114505_);}
	.st38{clip-path:url(#SVGID_00000173153707962773138170000006515529241897232559_);}
	.st39{clip-path:url(#SVGID_00000170987906060746236740000016982713700662049171_);}
	.st40{clip-path:url(#SVGID_00000170249959358494751720000010701331657448118170_);}
	.st41{clip-path:url(#SVGID_00000111182823426540810010000000155321931585327262_);}
	.st42{clip-path:url(#SVGID_00000068655183323806762210000016294290326136250277_);}
	.st43{fill:none;stroke:#313131;stroke-linecap:round;stroke-linejoin:round;stroke-miterlimit:10;}
	.st44{fill:none;stroke:#333333;stroke-width:3;stroke-linejoin:round;stroke-miterlimit:10;}
	.st45{fill:none;stroke:#333333;stroke-width:3;stroke-linecap:round;stroke-linejoin:round;stroke-miterlimit:10;}
</style>
<g id="Layer_1">
</g>
<g id="Layer_2">
</g>
<g id="Layer_5">
</g>
<g id="Layer_4">
</g>
<g id="Layer_6">
</g>
<g id="Layer_7">
</g>
<g id="Layer_3">
	<g>
		<g>
			<path class="st2" d="M65.4,35.6c-0.3-0.3-0.7-0.6-1.2-0.7v-10V14.5c0-2-1.6-3.6-3.6-3.6h-6.8l-4.9-8.7c-0.1-0.2-0.4-0.4-0.6-0.5
				c-0.3-0.1-0.6,0-0.8,0.1L33,10.9H13.2c-2.3,0-4.5,0.9-6.2,2.6s-2.6,3.9-2.6,6.2v40.8c0,4,3.2,7.2,7.2,7.2h3.1h0h42.3
				c4,0,7.2-3.2,7.2-7.2V51c1.2-0.4,2.1-1.6,2.1-2.9V37.8C66.4,36.9,66,36.2,65.4,35.6z M59.7,21.3L58,18.2h2.7
				c0.5,0,1.1-0.1,1.5-0.4v3.8c-0.5-0.2-1-0.4-1.5-0.4H59.7z M60.7,13c0.9,0,1.5,0.7,1.5,1.5c0,0.4-0.2,0.8-0.5,1.1
				c-0.3,0.3-0.7,0.5-1.1,0.5h-3.9L55,13H60.7z M47.7,4.2l2.9,5.1c-1.2,0.9-2.7,1-4.8,0.5c-0.2,0-0.4-0.1-0.7-0.3
				c-0.5-0.2-1.1,0-1.4,0.5c-0.2,0.5,0,1.1,0.5,1.4c0.3,0.2,0.7,0.3,1,0.4c0.9,0.2,1.8,0.4,2.6,0.4c1.4,0,2.6-0.4,3.7-1.1l5.8,10.2
				h-3.3l-3.7-5.9c-0.3-0.4-0.8-0.6-1.3-0.4c-3.1,1.3-6.5,0.6-7.9-1.8c-0.1-0.2-0.4-0.4-0.7-0.5c-0.3-0.1-0.6,0-0.8,0.1l-13.2,8.4
				h-6.2L47.7,4.2z M51.6,21.3H30.4l9.6-6.2c2,2.3,5.6,3.2,9,2L51.6,21.3z M13.2,21.3c-0.4,0-0.8-0.2-1.1-0.5s-0.5-0.7-0.5-1.1
				c0-0.9,0.7-1.5,1.5-1.5h8.3l-4.9,3.1H13.2z M8.5,15c1.3-1.3,3-2,4.7-2h16.5l-4.9,3.1H13.2c-2,0-3.6,1.6-3.6,3.6
				c0,1,0.4,1.9,1.1,2.6c0.7,0.7,1.6,1.1,2.6,1.1h47.5c0.9,0,1.5,0.7,1.5,1.5c0,0.4-0.2,0.8-0.5,1.1c-0.3,0.3-0.7,0.5-1.1,0.5H14.7
				h0h-1.5c-3.7,0-6.7-3-6.7-6.7C6.5,17.9,7.2,16.2,8.5,15z M6.5,60.5V25.4c1.6,1.9,4,3.1,6.7,3.1h0.5l0,37.2h-2.1
				C8.8,65.6,6.5,63.3,6.5,60.5z M57.1,65.6H15.8l0-37.2h44.9c0.5,0,1.1-0.1,1.5-0.4v6.6H51.9c-2.2,0-4.3,0.9-5.8,2.4
				c-1.6,1.6-2.4,3.6-2.4,5.8c0,4.6,3.7,8.3,8.3,8.3h10.3v9.3C62.2,63.3,59.9,65.6,57.1,65.6z M64.3,48.1c0,0.6-0.5,1-1,1H51.9
				c-3.4,0-6.2-2.8-6.2-6.2c0-1.7,0.6-3.2,1.8-4.4c1.2-1.2,2.7-1.8,4.4-1.8h11.4c0.3,0,0.5,0.1,0.7,0.3c0.2,0.2,0.3,0.4,0.3,0.7
				V48.1z"/>
			<path class="st2" d="M51.9,38.8c-2.3,0-4.1,1.9-4.1,4.1c0,2.3,1.9,4.1,4.1,4.1c2.3,0,4.1-1.9,4.1-4.1
				C56,40.7,54.2,38.8,51.9,38.8z M51.9,45c-1.1,0-2.1-0.9-2.1-2.1c0-1.1,0.9-2.1,2.1-2.1c1.1,0,2.1,0.9,2.1,2.1
				C54,44.1,53,45,51.9,45z"/>
			<path class="st2" d="M59.1,56.4c-0.6,0-1,0.5-1,1v2.1c0,0.5-0.2,1.1-0.6,1.5c-0.4,0.4-0.9,0.6-1.5,0.6H45.7c-0.6,0-1,0.5-1,1
				c0,0.6,0.5,1,1,1H56c1.1,0,2.1-0.4,2.9-1.2c0.8-0.8,1.2-1.8,1.2-2.9v-2.1C60.2,56.8,59.7,56.4,59.1,56.4z"/>
			<path class="st2" d="M41.6,61.5h-2.1c-0.6,0-1,0.5-1,1c0,0.6,0.5,1,1,1h2.1c0.6,0,1-0.5,1-1C42.6,62,42.1,61.5,41.6,61.5z"/>
			<path class="st2" d="M27.1,30.5h-8.3c-0.6,0-1,0.5-1,1v5.2c0,0.6,0.5,1,1,1c0.6,0,1-0.5,1-1v-4.1h7.2c0.6,0,1-0.5,1-1
				C28.2,31,27.7,30.5,27.1,30.5z"/>
			<path class="st2" d="M34.4,30.5h-3.1c-0.6,0-1,0.5-1,1c0,0.6,0.5,1,1,1h3.1c0.6,0,1-0.5,1-1C35.4,31,34.9,30.5,34.4,30.5z"/>
		</g>
	</g>
</g>
</svg>
