<?xml version="1.0" encoding="utf-8"?>
<!-- Generator: Adobe Illustrator 25.4.1, SVG Export Plug-In . SVG Version: 6.00 Build 0)  -->
<svg version="1.1" xmlns="http://www.w3.org/2000/svg" xmlns:xlink="http://www.w3.org/1999/xlink" x="0px" y="0px"
	 viewBox="0 0 73.4 70.8" style="enable-background:new 0 0 73.4 70.8;" xml:space="preserve">
<style type="text/css">
	.st0{fill:#F7F9FC;}
	.st1{fill:#FFFFFF;stroke:#D1D4D8;stroke-width:1.5;stroke-miterlimit:10;}
	.st2{fill:#333333;}
	.st3{fill:#002C73;}
	.st4{fill:#FFFFFF;}
	.st5{fill:#0F6FDE;}
	.st6{fill:#FFFFFF;stroke:#E6E6E6;stroke-width:1.5;stroke-miterlimit:10;}
	.st7{fill:none;stroke:#374A61;stroke-width:3;stroke-miterlimit:10;}
	.st8{fill:none;stroke:#374A61;stroke-width:2;stroke-linecap:round;stroke-miterlimit:10;}
	.st9{display:none;fill:#FFFFFF;}
	.st10{fill:none;stroke:#15B54A;stroke-miterlimit:10;}
	.st11{fill:#202625;}
	.st12{fill:#D0F4D2;}
	.st13{fill:#FFFFFF;stroke:#202625;stroke-miterlimit:10;}
	.st14{fill:#15B54A;}
	.st15{opacity:0.72;fill:#FFFFFF;stroke:#808080;stroke-width:0.75;stroke-miterlimit:10;}
	.st16{fill:none;stroke:#808080;stroke-width:0.75;stroke-miterlimit:10;}
	.st17{fill:#D0F4D2;stroke:#202625;stroke-width:0.5;stroke-miterlimit:10;}
	.st18{fill:none;stroke:#202625;stroke-width:1.5;stroke-linecap:round;stroke-linejoin:round;stroke-miterlimit:10;}
	.st19{fill:none;stroke:#202625;stroke-miterlimit:10;}
	.st20{fill:url(#SVGID_00000103226493139316321730000008098788814711847602_);}
	.st21{fill:#5883EC;}
	.st22{fill:url(#SVGID_00000181072832381790422110000008019039952860111294_);}
	.st23{fill:url(#SVGID_00000056415625501080724200000012511474189414159244_);}
	.st24{fill:#3D3D59;}
	.st25{fill:none;stroke:#5883EC;stroke-miterlimit:10;}
	.st26{fill:#F3F3FB;}
	.st27{fill:url(#SVGID_00000094606947087291971740000009494715045707338896_);}
	.st28{fill:#3592F1;}
	.st29{fill:none;stroke:#FFFFFF;stroke-width:1.5;stroke-linecap:round;stroke-linejoin:round;stroke-miterlimit:10;}
	.st30{fill:#ACD5FF;}
	.st31{fill:#0052E4;}
	.st32{fill:#FEC739;}
	.st33{fill:#313131;}
	.st34{fill:#FF8E9E;}
	.st35{fill:#3375E9;}
	.st36{fill:#99BAF4;}
	.st37{clip-path:url(#SVGID_00000147216749512258024490000007743628129613273234_);}
	.st38{clip-path:url(#SVGID_00000078723477067075595970000006271728408401832369_);}
	.st39{clip-path:url(#SVGID_00000168825392521107708990000006286661454443900298_);}
	.st40{clip-path:url(#SVGID_00000036935670332217396710000018289233854597766581_);}
	.st41{clip-path:url(#SVGID_00000126311463220587616810000001190470128975146624_);}
	.st42{clip-path:url(#SVGID_00000016786676477207094100000005808902386261445785_);}
	.st43{fill:none;stroke:#313131;stroke-linecap:round;stroke-linejoin:round;stroke-miterlimit:10;}
	.st44{fill:none;stroke:#333333;stroke-width:3;stroke-linejoin:round;stroke-miterlimit:10;}
	.st45{fill:none;stroke:#333333;stroke-width:3;stroke-linecap:round;stroke-linejoin:round;stroke-miterlimit:10;}
</style>
<g id="Layer_1">
</g>
<g id="Layer_2">
</g>
<g id="Layer_5">
</g>
<g id="Layer_4">
</g>
<g id="Layer_6">
</g>
<g id="Layer_7">
</g>
<g id="Layer_3">
	<g>
		<path class="st2" d="M62.2,52.2H11.4c-4.3,0-7.8-3.5-7.8-7.8V10.5c0-4.3,3.5-7.8,7.8-7.8h50.8c4.3,0,7.8,3.5,7.8,7.8v33.9
			C70.1,48.7,66.5,52.2,62.2,52.2z M11.4,5.7c-2.7,0-4.8,2.2-4.8,4.8v33.9c0,2.7,2.2,4.8,4.8,4.8h50.8c2.7,0,4.8-2.2,4.8-4.8V10.5
			c0-2.7-2.2-4.8-4.8-4.8H11.4z"/>
		<path class="st2" d="M58,69.2H15.6c-0.8,0-1.5-0.7-1.5-1.5c0-4.3,3.5-7.8,7.8-7.8h29.6c4.3,0,7.8,3.5,7.8,7.8
			C59.5,68.5,58.8,69.2,58,69.2z M17.4,66.2h38.9c-0.6-1.9-2.5-3.3-4.6-3.3H22C19.8,62.8,18,64.2,17.4,66.2z"/>
		<path class="st2" d="M43.2,62.8H30.5c-0.8,0-1.5-0.7-1.5-1.5V50.7c0-0.8,0.7-1.5,1.5-1.5h12.7c0.8,0,1.5,0.7,1.5,1.5v10.6
			C44.7,62.2,44,62.8,43.2,62.8z M32,59.8h9.7v-7.6H32V59.8z"/>
		<rect x="47.4" y="40.8" class="st2" width="21.2" height="3"/>
		<rect x="5.1" y="40.8" class="st2" width="21.2" height="3"/>
		<path class="st2" d="M60.1,33.2h-6.3v-3h4.8V16.9h3v14.8C61.6,32.5,60.9,33.2,60.1,33.2z"/>
		<path class="st2" d="M19.9,33.2h-6.3c-0.8,0-1.5-0.7-1.5-1.5V16.9h3v13.3h4.8V33.2z"/>
		<path class="st2" d="M36.8,43.8c-0.2,0-0.3,0-0.5-0.1C22.8,39.2,22.6,19.8,22.6,19c0-0.4,0.2-0.8,0.4-1.1c0.3-0.3,0.7-0.4,1.1-0.4
			c7.5,0,11.3-5.5,11.5-5.7c0.3-0.4,0.7-0.7,1.2-0.7c0,0,0,0,0,0c0.5,0,1,0.2,1.2,0.7c0.2,0.2,3.9,5.7,11.5,5.7
			c0.8,0,1.5,0.7,1.5,1.5c0,0.8-0.2,20.2-13.7,24.7C37.1,43.8,37,43.8,36.8,43.8z M25.7,20.4c0.3,4.3,2,16.8,11.1,20.3
			c9.2-3.5,10.8-16,11.1-20.3c-5.7-0.5-9.3-3.5-11.1-5.4C35,16.9,31.3,19.9,25.7,20.4z"/>
		<path class="st2" d="M36.8,36.8c-0.3,0-0.6-0.1-0.9-0.3c-3.9-2.7-5.6-8-6.4-12c-0.1-0.7,0.3-1.5,1-1.7c1.9-0.6,3.7-1.5,5.4-2.7
			l1.7,2.5c-1.5,1.1-3.2,1.9-4.9,2.6c0.7,2.9,1.9,6.1,4,8.1c2.5-2.3,3.7-6.3,4.3-9.4l2.9,0.6c-0.8,4-2.5,9.3-6.4,12
			C37.4,36.7,37.1,36.8,36.8,36.8z"/>
	</g>
</g>
</svg>
